<svg xmlns="http://www.w3.org/2000/svg" viewBox="0 0 25 41"><defs><style>.cls-1{fill:#919191;}.cls-2{fill:#727272;}.cls-3{fill:#fff;}.cls-4{fill:none;stroke:#919191;stroke-linecap:round;stroke-miterlimit:10;stroke-width:2px;}</style></defs><g id="Capa_2" data-name="Capa 2"><g id="Capa_1-2" data-name="Capa 1"><polygon class="cls-1" points="9.43 24.75 0.25 24.75 0.25 0.25 24.75 0.25 24.75 24.75 15.57 24.75 12.5 39.75 9.43 24.75"/><path class="cls-2" d="M24.5.5v24H15.36l-.08.4L12.5,38.5,9.72,24.9l-.08-.4H.5V.5h24M25,0H0V25H9.23L12.5,41l3.27-16H25V0Z"/><rect class="cls-3" x="7.31" y="7.34" width="10.32" height="10.32"/><line class="cls-4" x1="12.47" y1="12.5" x2="15.42" y2="9.55"/><line class="cls-4" x1="12.47" y1="12.5" x2="15.42" y2="15.45"/><line class="cls-4" x1="12.47" y1="12.5" x2="9.52" y2="15.45"/><line class="cls-4" x1="12.47" y1="12.5" x2="9.52" y2="9.55"/></g></g></svg>