<svg xmlns="http://www.w3.org/2000/svg" viewBox="0 0 25 40.83"><defs><style>.cls-1{fill:#7dcc2c;}.cls-2{fill:#6b9a2d;}.cls-3{fill:#fff;}.cls-4{fill:none;stroke:#7dcc2c;stroke-linecap:round;stroke-miterlimit:10;stroke-width:2px;}</style></defs><g id="Capa_2" data-name="Capa 2"><g id="Capa_1-2" data-name="Capa 1"><path class="cls-1" d="M1.64,18.18l-.14-.32A12.08,12.08,0,0,1,.25,12.5a12.25,12.25,0,0,1,24.5,0,12.08,12.08,0,0,1-1.25,5.36l-.18.36h0L12.58,40.27Z"/><path class="cls-2" d="M12.5.5a12,12,0,0,1,12,12,11.89,11.89,0,0,1-1.22,5.25l-.34.72h0L12.58,39.7,2.06,18.47h0l-.36-.72A11.89,11.89,0,0,1,.5,12.5a12,12,0,0,1,12-12m0-.5A12.5,12.5,0,0,0,0,12.5,12.37,12.37,0,0,0,1.28,18h0L12.5,40.67l.08.16L23.74,18h0A12.37,12.37,0,0,0,25,12.5,12.5,12.5,0,0,0,12.5,0Z"/><circle class="cls-3" cx="12.47" cy="12.5" r="6.47"/><line class="cls-4" x1="13.25" y1="12.96" x2="15.38" y2="9.38"/><line class="cls-4" x1="13.25" y1="12.96" x2="11.12" y2="16.55"/><line class="cls-4" x1="8.99" y1="12.96" x2="11.12" y2="16.55"/></g></g></svg>